<svg aria-hidden="true" style="width:0;height:0;position:absolute;overflow:hidden" xmlns="http://www.w3.org/2000/svg"><defs><symbol id="icon-chocolate" viewBox="0 0 32 32"><path fill="#fcf1e0" style="fill:var(--color1,#fcf1e0)" d="M3.944 20.076 14.721 2.652l.64-.675 8.235 5.491.057 3.315 2.009 3.28-8.88 14.076-12.839-8.063z"/><path fill="none" stroke="#fd9222" style="stroke:var(--color2,#fd9222)" stroke-linejoin="round" stroke-linecap="round" stroke-width="2.667" d="M21.635 23.88 7.448 15.016m3.913-6.417 14.185 8.864m-14.917 8.401L22.365 6.615m4.811 8.173c-3.04-1.899-4.233-3.383-2.277-6.591l-9.627-6.016L3.537 21.432l14.187 8.864 9.453-15.507z"/></symbol><symbol id="icon-menu" viewBox="0 0 32 32"><path stroke-linejoin="round" stroke-linecap="round" stroke-width="2.286" d="M4 16h24M4 8h24M4 24h24"/></symbol><symbol id="icon-instagram" viewBox="0 0 32 32"><path d="M8.727 2.909a5.818 5.818 0 0 0-5.818 5.818v14.545a5.818 5.818 0 0 0 5.818 5.818h14.545a5.818 5.818 0 0 0 5.818-5.818V8.727a5.818 5.818 0 0 0-5.818-5.818H8.727zM0 8.727A8.727 8.727 0 0 1 8.727 0h14.545a8.727 8.727 0 0 1 8.727 8.727v14.545a8.727 8.727 0 0 1-8.727 8.727H8.727A8.727 8.727 0 0 1 0 23.272V8.727z"/><path d="M16.703 11.621a4.36 4.36 0 0 0-4.538 2.354 4.36 4.36 0 0 0 .813 5.047 4.365 4.365 0 0 0 6.958-1.075 4.367 4.367 0 0 0-.788-5.095 4.36 4.36 0 0 0-2.445-1.231zm-3.99-2.139a7.272 7.272 0 1 1-1.794 11.597 7.272 7.272 0 0 1 1.793-11.598zM22.545 8c0-.803.651-1.455 1.455-1.455h.015a1.455 1.455 0 0 1 0 2.91H24A1.455 1.455 0 0 1 22.545 8z"/></symbol><symbol id="icon-twitter" viewBox="0 0 37 32"><path d="M22.134 2.058a8.353 8.353 0 0 1 8.545 1.577 15.11 15.11 0 0 0 3.491-1.832 1.523 1.523 0 0 1 2.359 1.606 13.279 13.279 0 0 1-3.04 5.751c.023.246.034.493.035.74v.005c0 9.295-4.475 16.114-10.903 19.536-6.391 3.401-14.559 3.364-21.837-.68a1.523 1.523 0 0 1 .801-2.855 16.22 16.22 0 0 0 7.429-1.475c-2.29-1.413-3.94-3.091-5.086-4.902-1.529-2.415-2.107-4.973-2.211-7.27-.104-2.29.26-4.353.642-5.832.192-.743.392-1.348.545-1.773.077-.213.143-.381.191-.5l.058-.14.018-.041.005-.01.034-.073 1.363.681 1.247-.876a14.724 14.724 0 0 0 10.943 6.219 8.355 8.355 0 0 1 5.372-7.857zM5.188 7.686c-.28 1.221-.503 2.77-.428 4.436.086 1.893.556 3.907 1.741 5.778 1.179 1.861 3.123 3.674 6.308 5.09a1.523 1.523 0 0 1 .237 2.653 19.27 19.27 0 0 1-5.488 2.573c4.831 1.231 9.671.643 13.631-1.464 5.381-2.864 9.287-8.615 9.287-16.843a5.294 5.294 0 0 0-.095-.981c-.096-.5.065-1.014.427-1.371.34-.335.654-.692.942-1.067-.345.127-.694.244-1.047.351a1.523 1.523 0 0 1-1.589-.459c-.713-.82-1.66-1.401-2.714-1.664s-2.163-.197-3.178.19a5.297 5.297 0 0 0-3.411 5.025v1.544c0 .826-.658 1.502-1.484 1.523A17.774 17.774 0 0 1 5.19 7.688z"/></symbol><symbol id="icon-icon-close" viewBox="0 0 32 32"><path stroke-linejoin="round" stroke-linecap="round" stroke-width="4.571" d="M29.333 2.667 2.668 29.332M2.667 2.667l26.665 26.665"/></symbol><symbol id="icon-hero-Arrow" viewBox="0 0 32 32"><path d="M16.945 17.866a1.33 1.33 0 0 1-1.89 0l-6.109-6.119a1.334 1.334 0 1 0-1.892 1.879l.001.001 6.119 6.121c.724.723 1.723 1.169 2.826 1.169s2.103-.447 2.826-1.169l6.121-6.121a1.334 1.334 0 1 0-1.894-1.88l-6.106 6.119z"/></symbol><symbol id="icon-benefits-shovel" viewBox="0 0 32 32"><path d="M15.374 13.835a5.859 5.859 0 0 1-1.345-3.747v-.004c0-4.942 5.921-9.877 11.842-9.877a5.923 5.923 0 0 1 5.921 5.922c0 5.922-4.934 11.845-9.881 11.845h-.003a5.864 5.864 0 0 1-3.756-1.353l.01.008L3.581 31.213a1.977 1.977 0 0 1-2.793-2.795l-.001.001 14.587-14.584z"/></symbol><symbol id="icon-benefits-coin" viewBox="0 0 32 32"><path d="M16 .762C7.619.762.762 7.619.762 16S7.619 31.238 16 31.238 31.238 24.381 31.238 16 24.381.762 16 .762zm0 27.429C9.295 28.191 3.809 22.705 3.809 16S9.295 3.809 16 3.809 28.191 9.295 28.191 16 22.705 28.191 16 28.191z"/><path d="M17.981 14.477H14.02c-.762 0-1.371-.61-1.371-1.371 0-.762.609-1.371 1.371-1.371h5.638c.914 0 1.525-.61 1.525-1.525s-.61-1.523-1.525-1.523h-2.133V7.316c0-.914-.61-1.523-1.525-1.523s-1.523.609-1.523 1.523v1.371h-.457a4.422 4.422 0 0 0-4.419 4.419 4.423 4.423 0 0 0 4.419 4.418h3.809c.762 0 1.371.61 1.371 1.371 0 .762-.609 1.371-1.371 1.371h-5.638c-.914 0-1.525.61-1.525 1.525s.61 1.523 1.525 1.523h2.286v1.371c0 .914.609 1.523 1.523 1.523s1.525-.609 1.525-1.523v-1.371h.457a4.423 4.423 0 0 0 4.418-4.419 4.423 4.423 0 0 0-4.419-4.418z"/></symbol><symbol id="icon-benefits-chocolate" viewBox="0 0 32 32"><path d="m13.511.472 8.602 8.613.091-.091a.975.975 0 0 1 1.353-.014l-.001-.001.998.998c.349.349.36.88.095 1.25l-.005.008-.163.219 7.04 7.04a1.593 1.593 0 0 1 0 2.263L20.744 31.534a1.593 1.593 0 0 1-2.263 0l-5.082-5.082a.961.961 0 0 1-1.436.081l-2.971-2.971a.975.975 0 0 1-.014-1.353l-.001.001.007-.008.088-.087L.47 13.513a1.593 1.593 0 0 1 0-2.263L11.247.473a1.593 1.593 0 0 1 2.263 0v.001zm7.522 9.691-2.007-2.006a.674.674 0 0 0-.972-.001l-4.092 4.092a.692.692 0 0 0 0 .982l1.999 1.999.697-.697-1.789-1.789 3.669-3.68 1.793 1.799.701-.701zm-5.801 5.797-2.005-2.005a.674.674 0 0 0-.972-.001l-4.103 4.103a.676.676 0 0 0 0 .971l2.002 2.002.704-.704-1.794-1.787 3.68-3.669 1.787 1.786.699-.698zM7.797 7.078l4.091 4.091a.667.667 0 0 0 .971-.011l4.091-4.091a.66.66 0 0 0 .206-.479v-.001h.011a.703.703 0 0 0-.206-.491L12.87 2.005a.687.687 0 0 0-.982-.001L7.797 6.107a.676.676 0 0 0 0 .971zm-5.795 5.794 4.091 4.091a.676.676 0 0 0 .971 0l4.091-4.091a.66.66 0 0 0 .206-.48v-.012.001h.011a.683.683 0 0 0-.206-.491L7.075 7.799a.674.674 0 0 0-.972-.001L2 11.901a.676.676 0 0 0 0 .971zm7.924 10.005 2.699 2.701 11.013-14.903-.749-.749L9.926 22.877z"/><path d="m13.511.472 8.602 8.613.091-.091a.975.975 0 0 1 1.353-.014l-.001-.001.998.998c.349.349.36.88.095 1.25l-.005.008-.163.219 7.04 7.04a1.593 1.593 0 0 1 0 2.263L20.744 31.534a1.593 1.593 0 0 1-2.263 0l-5.082-5.082a.961.961 0 0 1-1.436.081l-2.971-2.971a.975.975 0 0 1-.014-1.353l-.001.001.007-.008.088-.087L.47 13.513a1.593 1.593 0 0 1 0-2.263L11.247.473a1.593 1.593 0 0 1 2.263 0v.001zm7.522 9.691-2.007-2.006a.674.674 0 0 0-.972-.001l-4.092 4.092a.692.692 0 0 0 0 .982l1.999 1.999.697-.697-1.789-1.789 3.669-3.68 1.793 1.799.701-.701zm-5.801 5.797-2.005-2.005a.674.674 0 0 0-.972-.001l-4.103 4.103a.676.676 0 0 0 0 .971l2.002 2.002.704-.704-1.794-1.787 3.68-3.669 1.787 1.786.699-.698zM7.797 7.078l4.091 4.091a.667.667 0 0 0 .971-.011l4.091-4.091a.66.66 0 0 0 .206-.479v-.001h.011a.703.703 0 0 0-.206-.491L12.87 2.005a.687.687 0 0 0-.982-.001L7.797 6.107a.676.676 0 0 0 0 .971zm-5.795 5.794 4.091 4.091a.676.676 0 0 0 .971 0l4.091-4.091a.66.66 0 0 0 .206-.48v-.012.001h.011a.683.683 0 0 0-.206-.491L7.075 7.799a.674.674 0 0 0-.972-.001L2 11.901a.676.676 0 0 0 0 .971zm7.924 10.005 2.699 2.701 11.013-14.903-.749-.749L9.926 22.877z"/></symbol></defs></svg>