<svg aria-hidden="true" style="position: absolute; width: 0; height: 0; overflow: hidden;" version="1.1" xmlns="http://www.w3.org/2000/svg" xmlns:xlink="http://www.w3.org/1999/xlink">
<defs>
<symbol id="icon-Vector-11-2" viewBox="0 0 32 32">
<path d="M13.511 0.472l8.602 8.613 0.091-0.091c0.176-0.173 0.418-0.279 0.684-0.279 0.259 0 0.494 0.101 0.669 0.265l-0.001-0.001 0.998 0.998c0.349 0.349 0.36 0.88 0.095 1.25l-0.005 0.008-0.163 0.219 7.040 7.040c0.629 0.629 0.629 1.634 0 2.263l-10.777 10.777c-0.629 0.629-1.634 0.629-2.263 0l-5.082-5.082c-0.178 0.223-0.449 0.365-0.754 0.365-0.266 0-0.508-0.108-0.682-0.284l-2.971-2.971c-0.173-0.176-0.279-0.418-0.279-0.684 0-0.259 0.101-0.494 0.265-0.669l-0.001 0.001 0.007-0.008 0.088-0.087-8.602-8.602c-0.629-0.629-0.629-1.634 0-2.263l10.777-10.777c0.629-0.629 1.634-0.629 2.263 0v0.001zM21.033 10.163l-2.007-2.006c-0.123-0.127-0.295-0.206-0.486-0.206s-0.363 0.079-0.486 0.205l-4.092 4.092c-0.126 0.126-0.205 0.299-0.205 0.491s0.078 0.366 0.205 0.491l1.999 1.999 0.697-0.697-1.789-1.789 3.669-3.68 1.793 1.799 0.701-0.701zM15.232 15.96l-2.005-2.005c-0.123-0.127-0.295-0.206-0.486-0.206s-0.363 0.079-0.486 0.205l-4.103 4.103c-0.274 0.263-0.274 0.697 0 0.971l2.002 2.002 0.704-0.704-1.794-1.787 3.68-3.669 1.787 1.786 0.699-0.698zM7.797 7.078l4.091 4.091c0.274 0.274 0.709 0.274 0.971-0.011l4.091-4.091c0.127-0.121 0.206-0.291 0.206-0.479 0-0 0-0 0-0.001v0h0.011c0-0.171-0.069-0.354-0.206-0.491l-4.091-4.091c-0.125-0.127-0.299-0.206-0.491-0.206s-0.366 0.079-0.491 0.205l-0 0-4.091 4.103c-0.274 0.263-0.274 0.697 0 0.971zM2.002 12.872l4.091 4.091c0.274 0.274 0.709 0.274 0.971 0l4.091-4.091c0.127-0.121 0.206-0.291 0.206-0.48 0-0.004-0-0.008-0-0.012v0.001h0.011c0-0.183-0.069-0.354-0.206-0.491l-4.091-4.091c-0.123-0.127-0.295-0.206-0.486-0.206s-0.363 0.079-0.486 0.205l-4.103 4.103c-0.274 0.263-0.274 0.697 0 0.971zM9.926 22.877l2.699 2.701 11.013-14.903-0.749-0.749-12.963 12.951z"></path>
<path d="M13.511 0.472l8.602 8.613 0.091-0.091c0.176-0.173 0.418-0.279 0.684-0.279 0.259 0 0.494 0.101 0.669 0.265l-0.001-0.001 0.998 0.998c0.349 0.349 0.36 0.88 0.095 1.25l-0.005 0.008-0.163 0.219 7.040 7.040c0.629 0.629 0.629 1.634 0 2.263l-10.777 10.777c-0.629 0.629-1.634 0.629-2.263 0l-5.082-5.082c-0.178 0.223-0.449 0.365-0.754 0.365-0.266 0-0.508-0.108-0.682-0.284l-2.971-2.971c-0.173-0.176-0.279-0.418-0.279-0.684 0-0.259 0.101-0.494 0.265-0.669l-0.001 0.001 0.007-0.008 0.088-0.087-8.602-8.602c-0.629-0.629-0.629-1.634 0-2.263l10.777-10.777c0.629-0.629 1.634-0.629 2.263 0v0.001zM21.033 10.163l-2.007-2.006c-0.123-0.127-0.295-0.206-0.486-0.206s-0.363 0.079-0.486 0.205l-4.092 4.092c-0.126 0.126-0.205 0.299-0.205 0.491s0.078 0.366 0.205 0.491l1.999 1.999 0.697-0.697-1.789-1.789 3.669-3.68 1.793 1.799 0.701-0.701zM15.232 15.96l-2.005-2.005c-0.123-0.127-0.295-0.206-0.486-0.206s-0.363 0.079-0.486 0.205l-4.103 4.103c-0.274 0.263-0.274 0.697 0 0.971l2.002 2.002 0.704-0.704-1.794-1.787 3.68-3.669 1.787 1.786 0.699-0.698zM7.797 7.078l4.091 4.091c0.274 0.274 0.709 0.274 0.971-0.011l4.091-4.091c0.127-0.121 0.206-0.291 0.206-0.479 0-0 0-0 0-0.001v0h0.011c0-0.171-0.069-0.354-0.206-0.491l-4.091-4.091c-0.125-0.127-0.299-0.206-0.491-0.206s-0.366 0.079-0.491 0.205l-0 0-4.091 4.103c-0.274 0.263-0.274 0.697 0 0.971zM2.002 12.872l4.091 4.091c0.274 0.274 0.709 0.274 0.971 0l4.091-4.091c0.127-0.121 0.206-0.291 0.206-0.48 0-0.004-0-0.008-0-0.012v0.001h0.011c0-0.183-0.069-0.354-0.206-0.491l-4.091-4.091c-0.123-0.127-0.295-0.206-0.486-0.206s-0.363 0.079-0.486 0.205l-4.103 4.103c-0.274 0.263-0.274 0.697 0 0.971zM9.926 22.877l2.699 2.701 11.013-14.903-0.749-0.749-12.963 12.951z"></path>
</symbol>
<symbol id="icon-Mastercard" viewBox="0 0 47 32">
<path fill="#fafafa" style="fill: var(--color1, #fafafa)" d="M4.267 0.533h38.4c2.062 0 3.733 1.671 3.733 3.733v23.467c0 2.062-1.671 3.733-3.733 3.733h-38.4c-2.062 0-3.733-1.671-3.733-3.733v-23.467c0-2.062 1.671-3.733 3.733-3.733z"></path>
<path fill="none" stroke="#fafafa" style="stroke: var(--color1, #fafafa)" stroke-linejoin="miter" stroke-linecap="butt" stroke-miterlimit="4" stroke-width="1.0667" d="M4.267 0.533h38.4c2.062 0 3.733 1.671 3.733 3.733v23.467c0 2.062-1.671 3.733-3.733 3.733h-38.4c-2.062 0-3.733-1.671-3.733-3.733v-23.467c0-2.062 1.671-3.733 3.733-3.733z"></path>
<path fill="#ed0006" style="fill: var(--color2, #ed0006)" d="M23.467 23.29c-1.686 1.458-3.9 2.346-6.321 2.346-0.004 0-0.007 0-0.011 0h0.001c-5.391 0-9.76-4.395-9.76-9.818 0-5.422 4.369-9.818 9.76-9.818 2.415 0 4.626 0.883 6.331 2.346 1.686-1.458 3.9-2.346 6.321-2.346 0.004 0 0.007 0 0.011 0h-0.001c5.391 0 9.76 4.395 9.76 9.818 0 5.422-4.369 9.818-9.76 9.818-0.003 0-0.007 0-0.010 0-2.421 0-4.635-0.888-6.333-2.356l0.012 0.010z"></path>
<path fill="#f9a000" style="fill: var(--color3, #f9a000)" d="M23.467 23.29c2.105-1.812 3.429-4.479 3.429-7.456 0-0.006 0-0.011 0-0.017v0.001c0-0.005 0-0.010 0-0.016 0-2.977-1.325-5.644-3.416-7.445l-0.013-0.011c1.686-1.458 3.9-2.346 6.321-2.346 0.004 0 0.007 0 0.011 0h-0.001c5.391 0 9.76 4.395 9.76 9.818 0 5.422-4.369 9.818-9.76 9.818-0.003 0-0.007 0-0.010 0-2.421 0-4.635-0.888-6.333-2.356l0.012 0.010z"></path>
<path fill="#ff5e00" style="fill: var(--color4, #ff5e00)" d="M23.467 23.29c2.105-1.812 3.429-4.479 3.429-7.456 0-0.006 0-0.011 0-0.017v0.001c0-0.005 0-0.010 0-0.016 0-2.977-1.325-5.644-3.416-7.445l-0.013-0.011c-2.105 1.812-3.429 4.479-3.429 7.456 0 0.006 0 0.011 0 0.017v-0.001c0 0.005 0 0.011 0 0.017 0 2.977 1.325 5.644 3.416 7.445l0.013 0.011z"></path>
</symbol>
<symbol id="icon-Vector-10" viewBox="0 0 28 32">
<path stroke-linejoin="round" stroke-linecap="round" stroke-miterlimit="4" stroke-width="2.6667" d="M20.301 23.88l-14.185-8.864M10.028 8.599l14.185 8.864M9.297 25.864l11.736-19.25M25.843 14.789c-3.040-1.899-4.234-3.384-2.278-6.592l-9.626-6.015-11.736 19.25 14.186 8.864 9.454-15.507z"></path>
</symbol>
<symbol id="icon-instagram" viewBox="0 0 32 32">
<path stroke-linejoin="round" stroke-linecap="round" stroke-miterlimit="4" stroke-width="2.6667" d="M22.667 2.667h-13.333c-3.682 0-6.667 2.985-6.667 6.667v13.333c0 3.682 2.985 6.667 6.667 6.667h13.333c3.682 0 6.667-2.985 6.667-6.667v-13.333c0-3.682-2.985-6.667-6.667-6.667z"></path>
<path stroke-linejoin="round" stroke-linecap="round" stroke-miterlimit="4" stroke-width="2.6667" d="M21.334 15.16c0.165 1.11-0.025 2.243-0.542 3.239s-1.334 1.803-2.336 2.307c-1.002 0.504-2.138 0.68-3.245 0.502s-2.131-0.701-2.924-1.494-1.316-1.816-1.494-2.924c-0.178-1.108-0.003-2.243 0.502-3.245s1.312-1.819 2.308-2.336 2.129-0.706 3.239-0.542c1.132 0.168 2.18 0.695 2.989 1.504s1.337 1.857 1.504 2.989z"></path>
<path stroke-linejoin="round" stroke-linecap="round" stroke-miterlimit="4" stroke-width="2.6667" d="M23.333 8.667h0.013"></path>
</symbol>
<symbol id="icon-twitter" viewBox="0 0 32 32">
<path stroke-linejoin="round" stroke-linecap="round" stroke-miterlimit="4" stroke-width="2.6667" d="M30.667 4c-1.277 0.901-2.691 1.589-4.187 2.040-0.803-0.923-1.87-1.578-3.057-1.875s-2.437-0.222-3.58 0.214c-1.143 0.436-2.125 1.213-2.812 2.226s-1.047 2.212-1.031 3.435v1.333c-2.343 0.061-4.665-0.459-6.759-1.513s-4.561-3.563-5.908-5.481c0 0-4.667 12.954 7.333 18.287-2.746 1.864-6.017 2.799-9.333 2.667 12 6.667 26.667 0 26.667-15.333-0.001-0.371-0.037-0.742-0.107-1.107 1.361-1.342 2.321-3.036 2.773-4.893z"></path>
</symbol>
<symbol id="icon-2" viewBox="0 0 32 32">
<path fill="#fff" style="fill: var(--color5, #fff)" d="M16 32c8.837 0 16-7.163 16-16s-7.163-16-16-16c-8.837 0-16 7.163-16 16s7.163 16 16 16z"></path>
<path fill="#fd9222" style="fill: var(--color6, #fd9222)" d="M16.548 17.080c-0.14 0.141-0.334 0.228-0.548 0.228s-0.408-0.087-0.548-0.228l-0-0-3.536-3.543c-0.142-0.158-0.348-0.257-0.576-0.257-0.427 0-0.773 0.346-0.773 0.773 0 0.227 0.098 0.43 0.253 0.572l0.001 0.001 3.543 3.544c0.419 0.419 0.998 0.677 1.637 0.677s1.218-0.259 1.637-0.677l3.543-3.544c0.131-0.138 0.212-0.325 0.212-0.532 0-0.426-0.346-0.772-0.772-0.772-0.208 0-0.397 0.082-0.536 0.216l0-0-3.536 3.543z"></path>
</symbol>
<symbol id="icon-Frame" viewBox="0 0 41 32">
<path fill="#ffd700" style="fill: var(--color7, #ffd700)" d="M40.745 1.354h-40.435v30.092h40.435v-30.092z"></path>
<path fill="#0057b7" style="fill: var(--color8, #0057b7)" d="M0.311 1.354h40.434v15.045h-40.435v-15.045z"></path>
</symbol>
<symbol id="icon-Icon-2" viewBox="0 0 45 32">
<path stroke-linejoin="round" stroke-linecap="round" stroke-miterlimit="4" stroke-width="4" d="M3.2 16h38.4M3.2 3.2h38.4M3.2 28.8h38.4"></path>
</symbol>
<symbol id="icon-la_utensil-spoon-2" viewBox="0 0 32 32">
<path fill="#fd9222" style="fill: var(--color6, #fd9222)" d="M15.451 14.106c-0.732-0.884-1.176-2.029-1.176-3.278 0-0.001 0-0.003 0-0.004v0c0-4.324 5.18-8.642 10.362-8.642 2.861 0.001 5.18 2.321 5.181 5.182v0c0 5.182-4.318 10.364-8.646 10.364-0.001 0-0.002 0-0.003 0-1.249 0-2.395-0.444-3.287-1.184l0.009 0.007-12.759 12.761c-0.307 0.283-0.719 0.457-1.171 0.457-0.955 0-1.73-0.775-1.73-1.73 0-0.453 0.174-0.865 0.459-1.173l-0.001 0.001 12.762-12.761z"></path>
</symbol>
<symbol id="icon-Coin-2" viewBox="0 0 32 32">
<path fill="#fd9222" style="fill: var(--color6, #fd9222)" d="M16 2.667c-7.334 0-13.334 6-13.334 13.333s6 13.333 13.334 13.333c7.333 0 13.333-6 13.333-13.333s-6-13.333-13.333-13.333zM16 26.667c-5.867 0-10.667-4.8-10.667-10.667s4.8-10.667 10.667-10.667c5.866 0 10.666 4.8 10.666 10.667s-4.8 10.667-10.666 10.667z"></path>
<path fill="#fd9222" style="fill: var(--color6, #fd9222)" d="M17.733 14.667h-3.466c-0.667 0-1.2-0.534-1.2-1.2 0-0.667 0.533-1.2 1.2-1.2h4.933c0.8 0 1.333-0.534 1.333-1.334s-0.533-1.333-1.333-1.333h-1.867v-1.2c0-0.8-0.533-1.333-1.333-1.333s-1.333 0.533-1.333 1.333v1.2h-0.4c-2.135 0.002-3.865 1.732-3.867 3.867v0c0.002 2.135 1.732 3.864 3.867 3.866h3.333c0.667 0 1.2 0.534 1.2 1.2 0 0.667-0.533 1.2-1.2 1.2h-4.933c-0.8 0-1.334 0.534-1.334 1.334s0.534 1.333 1.334 1.333h2v1.2c0 0.8 0.533 1.333 1.333 1.333s1.333-0.533 1.333-1.333v-1.2h0.4c2.135-0.002 3.865-1.732 3.867-3.867v-0c-0.002-2.135-1.732-3.864-3.867-3.866h-0z"></path>
</symbol>
</defs>
</svg>
