<svg aria-hidden="true" style="position: absolute; width: 0; height: 0; overflow: hidden;" version="1.1" xmlns="http://www.w3.org/2000/svg" xmlns:xlink="http://www.w3.org/1999/xlink">
<defs>
<symbol id="icon-scroll-top" viewBox="0 0 57 32">
<path d="M54.243 24.186c1.498 1.498 1.498 3.928 0 5.426s-3.928 1.498-5.426 0l-20.979-20.979-21.288 21.288c-1.498 1.498-3.928 1.498-5.426 0s-1.498-3.928 0-5.426l23.062-23.062c0.764-0.764 1.769-1.138 2.77-1.123 1.4-0.6 3.083-0.328 4.225 0.814l23.062 23.062z"></path>
</symbol>
<symbol id="icon-ukraine" viewBox="0 0 43 32">
<path fill="#ffd700" style="fill: var(--color1, #ffd700)" d="M42.443 0.077h-42.12v31.345h42.12v-31.345z"></path>
<path fill="#0057b7" style="fill: var(--color2, #0057b7)" d="M0.324 0.077h42.119v15.672h-42.12v-15.672z"></path>
</symbol>
<symbol id="icon-chocolate" viewBox="0 0 32 32">
<path fill="#fcf1e0" style="fill: var(--color1, #fcf1e0)" d="M3.944 20.076l10.777-17.424 0.64-0.675 8.235 5.491 0.057 3.315 2.009 3.28-8.88 14.076-12.839-8.063z"></path>
<path fill="none" stroke="#fd9222" style="stroke: var(--color2, #fd9222)" stroke-linejoin="round" stroke-linecap="round" stroke-miterlimit="4" stroke-width="2.6667" d="M21.635 23.88l-14.187-8.864M11.361 8.599l14.185 8.864M10.629 25.864l11.736-19.249M27.176 14.788c-3.040-1.899-4.233-3.383-2.277-6.591l-9.627-6.016-11.735 19.251 14.187 8.864 9.453-15.507z"></path>
</symbol>
<symbol id="icon-mastercard" viewBox="0 0 47 32">
<path fill="#fafafa" style="fill: var(--color1, #fafafa)" d="M4.267 0.533h38.4c2.062 0 3.733 1.671 3.733 3.733v23.467c0 2.062-1.671 3.733-3.733 3.733h-38.4c-2.062 0-3.733-1.671-3.733-3.733v-23.467c0-2.062 1.671-3.733 3.733-3.733z"></path>
<path fill="none" stroke="#fafafa" style="stroke: var(--color1, #fafafa)" stroke-linejoin="miter" stroke-linecap="butt" stroke-miterlimit="4" stroke-width="1.0667" d="M4.267 0.533h38.4c2.062 0 3.733 1.671 3.733 3.733v23.467c0 2.062-1.671 3.733-3.733 3.733h-38.4c-2.062 0-3.733-1.671-3.733-3.733v-23.467c0-2.062 1.671-3.733 3.733-3.733z"></path>
<path fill="#ed0006" style="fill: var(--color2, #ed0006)" d="M23.467 23.29c-1.704 1.462-3.915 2.345-6.331 2.345-5.39 0-9.76-4.396-9.76-9.818s4.37-9.818 9.76-9.818c2.416 0 4.627 0.883 6.331 2.345 1.704-1.462 3.915-2.345 6.331-2.345 5.391 0 9.76 4.395 9.76 9.818s-4.37 9.818-9.76 9.818c-2.416 0-4.627-0.883-6.331-2.345z"></path>
<path fill="#f9a000" style="fill: var(--color3, #f9a000)" d="M23.467 23.29c2.099-1.801 3.429-4.48 3.429-7.472s-1.331-5.672-3.429-7.472c1.704-1.462 3.915-2.345 6.331-2.345 5.391 0 9.76 4.395 9.76 9.818s-4.37 9.818-9.76 9.818c-2.416 0-4.627-0.883-6.331-2.345z"></path>
<path fill="#ff5e00" style="fill: var(--color4, #ff5e00)" d="M23.467 23.29c2.099-1.801 3.429-4.48 3.429-7.472s-1.331-5.672-3.429-7.472c-2.099 1.801-3.429 4.48-3.429 7.472s1.331 5.672 3.429 7.472z"></path>
</symbol>
<symbol id="icon-Ukraine" viewBox="0 0 43 32">
<path fill="#ffd700" style="fill: var(--color1, #ffd700)" d="M42.443 0.077h-42.12v31.345h42.12v-31.345z"></path>
<path fill="#0057b7" style="fill: var(--color2, #0057b7)" d="M0.324 0.077h42.119v15.672h-42.12v-15.672z"></path>
</symbol>
<symbol id="icon-hero-Arrow" viewBox="0 0 56 32">
<path d="M30.6 21.132c-0.664 0.668-1.584 1.081-2.6 1.081s-1.936-0.413-2.6-1.081l-0-0-16.8-16.828c-0.672-0.725-1.629-1.177-2.692-1.177-2.026 0-3.668 1.642-3.668 3.668 0 1.055 0.445 2.006 1.158 2.675l0.002 0.002 16.828 16.832c1.99 1.987 4.738 3.216 7.772 3.216s5.782-1.229 7.772-3.216l16.832-16.832c0.658-0.663 1.065-1.576 1.065-2.584 0-2.026-1.642-3.668-3.669-3.668-1.018 0-1.939 0.415-2.604 1.084l-0 0-16.792 16.828z"></path>
</symbol>
<symbol id="icon-menu-burger" viewBox="0 0 45 32">
 <path d="M1.2 3.2c0-1.105 0.895-2 2-2h38.4c1.105 0 2 0.895 2 2s-0.895 2-2 2h-38.4c-1.105 0-2-0.895-2-2zM1.2 16c0-1.105 0.895-2 2-2h38.4c1.105 0 2 0.895 2 2s-0.895 2-2 2h-38.4c-1.105 0-2-0.895-2-2zM1.2 28.8c0-1.105 0.895-2 2-2h38.4c1.105 0 2 0.895 2 2s-0.895 2-2 2h-38.4c-1.105 0-2-0.895-2-2z"></path>
</symbol>
<symbol id="icon-close" viewBox="0 0 32 32">
<path d="M31.331 0.669c0.893 0.893 0.893 2.34 0 3.232l-27.429 27.429c-0.893 0.893-2.34 0.893-3.232 0s-0.893-2.34 0-3.232l27.429-27.429c0.893-0.893 2.34-0.893 3.232 0z"></path>
<path d="M0.669 0.669c0.893-0.893 2.34-0.893 3.232 0l27.429 27.429c0.893 0.893 0.893 2.34 0 3.232s-2.34 0.893-3.232 0l-27.429-27.429c-0.893-0.893-0.893-2.34 0-3.232z"></path>
</symbol>
<symbol id="icon-benefits-shovel" viewBox="0 0 32 32">
<path d="M15.373 13.835c-0.894-1.086-1.345-2.418-1.345-3.751 0-4.941 5.921-9.877 11.842-9.877 3.269 0 5.921 2.653 5.921 5.922 0 5.922-4.934 11.845-9.881 11.845-1.332 0-2.665-0.45-3.75-1.345l-14.581 14.584c-0.771 0.771-2.023 0.771-2.794 0s-0.771-2.024 0-2.795l14.587-14.584z"></path>
</symbol>
<symbol id="icon-benefits-coin" viewBox="0 0 32 32">
<path d="M16 0.762c-8.381 0-15.238 6.857-15.238 15.238s6.857 15.238 15.238 15.238c8.381 0 15.238-6.857 15.238-15.238s-6.857-15.238-15.238-15.238zM16 28.19c-6.705 0-12.19-5.486-12.19-12.19s5.486-12.191 12.19-12.191c6.705 0 12.191 5.486 12.191 12.191s-5.486 12.19-12.191 12.19z"></path>
<path d="M17.981 14.476h-3.962c-0.762 0-1.371-0.61-1.371-1.371s0.61-1.371 1.371-1.371h5.638c0.914 0 1.524-0.61 1.524-1.524s-0.61-1.524-1.524-1.524h-2.133v-1.371c0-0.914-0.61-1.524-1.524-1.524s-1.524 0.61-1.524 1.524v1.371h-0.457c-2.438 0-4.419 1.981-4.419 4.419s1.981 4.419 4.419 4.419h3.809c0.762 0 1.371 0.61 1.371 1.371s-0.61 1.371-1.371 1.371h-5.638c-0.914 0-1.524 0.61-1.524 1.524s0.61 1.524 1.524 1.524h2.286v1.371c0 0.914 0.61 1.524 1.524 1.524s1.524-0.61 1.524-1.524v-1.371h0.457c2.438 0 4.419-1.981 4.419-4.419s-1.981-4.419-4.419-4.419z"></path>
</symbol>
<symbol id="icon-benefits-chocolate" viewBox="0 0 32 32">
<path d="M13.511 0.472l8.602 8.613 0.091-0.091c0.18-0.176 0.422-0.276 0.674-0.279s0.496 0.092 0.68 0.264l0.998 0.998c0.349 0.349 0.36 0.88 0.095 1.25l-0.005 0.008-0.163 0.219 7.040 7.040c0.629 0.629 0.629 1.634 0 2.263l-10.777 10.777c-0.629 0.629-1.634 0.629-2.263 0l-5.082-5.082c-0.084 0.106-0.19 0.194-0.311 0.256s-0.253 0.099-0.389 0.106c-0.136 0.008-0.271-0.014-0.398-0.062s-0.242-0.123-0.338-0.22l-2.971-2.971c-0.176-0.18-0.276-0.421-0.279-0.674s0.092-0.496 0.264-0.68l0.007-0.008 0.088-0.087-8.602-8.602c-0.629-0.629-0.629-1.634 0-2.263l10.777-10.777c0.629-0.629 1.634-0.629 2.263 0v0.001zM21.033 10.163l-2.007-2.006c-0.063-0.065-0.139-0.117-0.222-0.152s-0.173-0.053-0.264-0.053c-0.091 0-0.18 0.018-0.264 0.053s-0.159 0.087-0.222 0.152l-4.091 4.091c-0.065 0.064-0.116 0.141-0.151 0.225s-0.053 0.175-0.053 0.266 0.018 0.182 0.053 0.266c0.035 0.084 0.086 0.161 0.151 0.225l1.999 1.999 0.697-0.697-1.789-1.789 3.669-3.68 1.793 1.799 0.701-0.701zM15.232 15.96l-2.005-2.005c-0.063-0.065-0.139-0.117-0.222-0.152s-0.173-0.053-0.264-0.053c-0.091 0-0.18 0.018-0.264 0.053s-0.159 0.087-0.222 0.152l-4.103 4.103c-0.274 0.263-0.274 0.697 0 0.971l2.002 2.002 0.704-0.704-1.794-1.787 3.68-3.669 1.787 1.786 0.699-0.698zM7.797 7.078l4.091 4.091c0.274 0.274 0.709 0.274 0.971-0.011l4.091-4.091c0.065-0.062 0.117-0.136 0.152-0.219s0.054-0.171 0.054-0.261h0.011c0-0.171-0.069-0.354-0.206-0.491l-4.091-4.091c-0.064-0.065-0.141-0.117-0.225-0.152s-0.175-0.053-0.266-0.053c-0.091 0-0.182 0.018-0.266 0.053s-0.161 0.087-0.225 0.152l-4.091 4.103c-0.274 0.263-0.274 0.697 0 0.971zM2.002 12.872l4.091 4.091c0.274 0.274 0.709 0.274 0.971 0l4.091-4.091c0.066-0.063 0.119-0.14 0.154-0.224s0.053-0.176 0.051-0.267h0.011c0-0.183-0.069-0.354-0.206-0.491l-4.091-4.091c-0.063-0.065-0.139-0.117-0.222-0.152s-0.173-0.053-0.264-0.053c-0.091 0-0.18 0.018-0.264 0.053s-0.159 0.087-0.222 0.152l-4.103 4.103c-0.274 0.263-0.274 0.697 0 0.971zM9.926 22.877l2.699 2.701 11.013-14.903-0.749-0.749-12.963 12.951z"></path>
<path d="M13.511 0.472l8.602 8.613 0.091-0.091c0.18-0.176 0.422-0.276 0.674-0.279s0.496 0.092 0.68 0.264l0.998 0.998c0.349 0.349 0.36 0.88 0.095 1.25l-0.005 0.008-0.163 0.219 7.040 7.040c0.629 0.629 0.629 1.634 0 2.263l-10.777 10.777c-0.629 0.629-1.634 0.629-2.263 0l-5.082-5.082c-0.084 0.106-0.19 0.194-0.311 0.256s-0.253 0.099-0.389 0.106c-0.136 0.008-0.271-0.014-0.398-0.062s-0.242-0.123-0.338-0.22l-2.971-2.971c-0.176-0.18-0.276-0.421-0.279-0.674s0.092-0.496 0.264-0.68l0.007-0.008 0.088-0.087-8.602-8.602c-0.629-0.629-0.629-1.634 0-2.263l10.777-10.777c0.629-0.629 1.634-0.629 2.263 0v0.001zM21.033 10.163l-2.007-2.006c-0.063-0.065-0.139-0.117-0.222-0.152s-0.173-0.053-0.264-0.053c-0.091 0-0.18 0.018-0.264 0.053s-0.159 0.087-0.222 0.152l-4.091 4.091c-0.065 0.064-0.116 0.141-0.151 0.225s-0.053 0.175-0.053 0.266 0.018 0.182 0.053 0.266c0.035 0.084 0.086 0.161 0.151 0.225l1.999 1.999 0.697-0.697-1.789-1.789 3.669-3.68 1.793 1.799 0.701-0.701zM15.232 15.96l-2.005-2.005c-0.063-0.065-0.139-0.117-0.222-0.152s-0.173-0.053-0.264-0.053c-0.091 0-0.18 0.018-0.264 0.053s-0.159 0.087-0.222 0.152l-4.103 4.103c-0.274 0.263-0.274 0.697 0 0.971l2.002 2.002 0.704-0.704-1.794-1.787 3.68-3.669 1.787 1.786 0.699-0.698zM7.797 7.078l4.091 4.091c0.274 0.274 0.709 0.274 0.971-0.011l4.091-4.091c0.065-0.062 0.117-0.136 0.152-0.219s0.054-0.171 0.054-0.261h0.011c0-0.171-0.069-0.354-0.206-0.491l-4.091-4.091c-0.064-0.065-0.141-0.117-0.225-0.152s-0.175-0.053-0.266-0.053c-0.091 0-0.182 0.018-0.266 0.053s-0.161 0.087-0.225 0.152l-4.091 4.103c-0.274 0.263-0.274 0.697 0 0.971zM2.002 12.872l4.091 4.091c0.274 0.274 0.709 0.274 0.971 0l4.091-4.091c0.066-0.063 0.119-0.14 0.154-0.224s0.053-0.176 0.051-0.267h0.011c0-0.183-0.069-0.354-0.206-0.491l-4.091-4.091c-0.063-0.065-0.139-0.117-0.222-0.152s-0.173-0.053-0.264-0.053c-0.091 0-0.18 0.018-0.264 0.053s-0.159 0.087-0.222 0.152l-4.103 4.103c-0.274 0.263-0.274 0.697 0 0.971zM9.926 22.877l2.699 2.701 11.013-14.903-0.749-0.749-12.963 12.951z"></path>
</symbol>
<symbol id="icon-twitter" viewBox="0 0 32 32">
<path d="M19.367 3.134c1.398-0.534 2.927-0.625 4.379-0.262 1.155 0.289 2.217 0.854 3.097 1.642 1.083-0.398 2.11-0.937 3.055-1.603 0.454-0.32 1.059-0.325 1.519-0.013s0.677 0.878 0.545 1.418c-0.457 1.875-1.372 3.604-2.66 5.032 0.020 0.215 0.030 0.431 0.031 0.648v0.004c0 8.133-3.916 14.1-9.54 17.094-5.592 2.976-12.739 2.943-19.107-0.595-0.54-0.3-0.803-0.931-0.636-1.526s0.72-0.997 1.337-0.972c2.251 0.090 4.479-0.359 6.505-1.293-4.788-2.975-6.4-7.326-6.72-11.072-0.18-2.109 0.045-4.023 0.311-5.402 0.133-0.692 0.278-1.258 0.392-1.654 0.057-0.199 0.106-0.356 0.142-0.466 0.018-0.055 0.033-0.099 0.043-0.13l0.013-0.038 0.004-0.012 0.001-0.004 0.001-0.002c0-0.001 0-0.001 1.255 0.451l-1.254-0.452c0.169-0.468 0.584-0.804 1.077-0.87s0.982 0.148 1.268 0.555c1.278 1.82 3.592 4.138 5.416 5.057 1.509 0.76 3.149 1.213 4.825 1.339-0.010-1.48 0.43-2.928 1.261-4.152 0.841-1.238 2.041-2.189 3.44-2.722zM4.001 7.304c-0.183 1.143-0.303 2.574-0.173 4.106 0.302 3.533 1.918 7.611 7.38 10.039 0.442 0.197 0.743 0.618 0.787 1.1s-0.179 0.95-0.579 1.222c-1.481 1.005-3.103 1.762-4.802 2.251 4.227 1.077 8.463 0.563 11.927-1.281 4.708-2.506 8.126-7.539 8.126-14.737-0.001-0.288-0.029-0.576-0.083-0.859-0.084-0.437 0.057-0.887 0.373-1.2 0.297-0.293 0.572-0.605 0.824-0.934-0.302 0.111-0.608 0.214-0.917 0.307-0.502 0.151-1.046-0.006-1.391-0.402-0.624-0.717-1.453-1.226-2.375-1.456s-1.893-0.173-2.781 0.166c-0.888 0.339-1.651 0.942-2.184 1.729s-0.813 1.718-0.801 2.668l0 0.018h-0v1.333c0 0.723-0.576 1.314-1.299 1.333-2.563 0.066-5.103-0.502-7.393-1.655-1.577-0.794-3.269-2.26-4.641-3.748z"></path>
</symbol>
<symbol id="icon-instagram" viewBox="0 0 32 32">
<path d="M8.727 2.909c-3.213 0-5.818 2.605-5.818 5.818v14.545c0 3.213 2.605 5.818 5.818 5.818h14.545c3.213 0 5.818-2.605 5.818-5.818v-14.545c0-3.213-2.605-5.818-5.818-5.818h-14.545zM0 8.727c0-4.82 3.907-8.727 8.727-8.727h14.545c4.82 0 8.727 3.907 8.727 8.727v14.545c0 4.82-3.907 8.727-8.727 8.727h-14.545c-4.82 0-8.727-3.907-8.727-8.727v-14.545z"></path>
<path d="M16.703 11.621c-0.908-0.135-1.835 0.020-2.65 0.443s-1.475 1.092-1.888 1.911-0.556 1.749-0.41 2.655c0.146 0.906 0.574 1.743 1.223 2.392s1.486 1.077 2.392 1.223c0.906 0.146 1.835 0.002 2.655-0.41s1.489-1.073 1.911-1.888c0.423-0.815 0.578-1.742 0.443-2.65-0.137-0.926-0.569-1.784-1.231-2.445s-1.519-1.094-2.446-1.231zM12.713 9.482c1.358-0.705 2.903-0.963 4.416-0.739 1.543 0.229 2.972 0.948 4.076 2.051s1.823 2.532 2.052 4.076c0.224 1.513-0.034 3.059-0.739 4.416s-1.819 2.459-3.186 3.147c-1.366 0.688-2.915 0.927-4.425 0.684s-2.905-0.956-3.987-2.038c-1.082-1.082-1.795-2.477-2.038-3.987s-0.004-3.059 0.684-4.425c0.688-1.366 1.789-2.481 3.147-3.186z"></path>
<path d="M22.545 8c0-0.803 0.651-1.455 1.455-1.455h0.015c0.803 0 1.455 0.651 1.455 1.455s-0.651 1.455-1.455 1.455h-0.015c-0.803 0-1.455-0.651-1.455-1.455z"></path>
</symbol>
</defs>
</svg>
