<svg aria-hidden="true" style="position: absolute; width: 0; height: 0; overflow: hidden;" version="1.1" xmlns="http://www.w3.org/2000/svg" xmlns:xlink="http://www.w3.org/1999/xlink">
<defs>
<symbol id="icon-chocolate" viewBox="0 0 32 32">
<path fill="#fcf1e0" style="fill: var(--color1, #fcf1e0)" d="M3.944 20.076l10.777-17.424 0.64-0.675 8.235 5.491 0.057 3.315 2.009 3.28-8.88 14.076-12.839-8.063z"></path>
<path fill="none" stroke="#fd9222" style="stroke: var(--color2, #fd9222)" stroke-linejoin="round" stroke-linecap="round" stroke-miterlimit="4" stroke-width="2.6667" d="M21.635 23.88l-14.187-8.864M11.361 8.599l14.185 8.864M10.629 25.864l11.736-19.249M27.176 14.788c-3.040-1.899-4.233-3.383-2.277-6.591l-9.627-6.016-11.735 19.251 14.187 8.864 9.453-15.507z"></path>
</symbol>
<symbol id="icon-menu" viewBox="0 0 32 32">
<path stroke-linejoin="round" stroke-linecap="round" stroke-miterlimit="4" stroke-width="2.2857" d="M4 16h24M4 8h24M4 24h24"></path>
</symbol>
<symbol id="icon-instagram" viewBox="0 0 32 32">
<path d="M8.727 2.909c-3.213 0-5.818 2.605-5.818 5.818v14.545c0 3.213 2.605 5.818 5.818 5.818h14.545c3.213 0 5.818-2.605 5.818-5.818v-14.545c0-3.213-2.605-5.818-5.818-5.818h-14.545zM0 8.727c0-4.82 3.907-8.727 8.727-8.727h14.545c4.82 0 8.727 3.907 8.727 8.727v14.545c0 4.82-3.907 8.727-8.727 8.727h-14.545c-4.82 0-8.727-3.907-8.727-8.727v-14.545z"></path>
<path d="M16.703 11.621c-0.908-0.135-1.835 0.020-2.65 0.443s-1.475 1.092-1.888 1.911c-0.413 0.82-0.556 1.749-0.41 2.655s0.574 1.743 1.223 2.392c0.649 0.649 1.486 1.077 2.392 1.223s1.835 0.002 2.655-0.41c0.82-0.413 1.489-1.073 1.911-1.888s0.578-1.742 0.443-2.65c-0.137-0.926-0.569-1.783-1.231-2.445s-1.519-1.094-2.445-1.231zM12.713 9.482c1.358-0.705 2.903-0.963 4.416-0.739 1.544 0.229 2.973 0.948 4.076 2.051s1.823 2.532 2.051 4.076c0.224 1.513-0.034 3.058-0.739 4.416s-1.819 2.459-3.186 3.147c-1.366 0.688-2.915 0.927-4.425 0.684s-2.906-0.956-3.987-2.038c-1.082-1.082-1.795-2.477-2.038-3.987s-0.004-3.059 0.684-4.425 1.789-2.481 3.147-3.186z"></path>
<path d="M22.545 8c0-0.803 0.651-1.455 1.455-1.455h0.015c0.803 0 1.455 0.651 1.455 1.455s-0.651 1.455-1.455 1.455h-0.015c-0.803 0-1.455-0.651-1.455-1.455z"></path>
</symbol>
<symbol id="icon-twitter" viewBox="0 0 37 32">
<path d="M22.134 2.058c1.598-0.61 3.345-0.714 5.005-0.299 1.32 0.33 2.533 0.976 3.54 1.876 1.238-0.455 2.411-1.071 3.491-1.832 0.519-0.366 1.211-0.372 1.736-0.014s0.773 1.003 0.623 1.62c-0.522 2.143-1.568 4.119-3.040 5.751 0.023 0.246 0.034 0.493 0.035 0.74v0.005c0 9.295-4.475 16.114-10.903 19.536-6.391 3.401-14.559 3.364-21.837-0.68-0.617-0.343-0.918-1.064-0.727-1.744s0.823-1.139 1.528-1.111c2.57 0.102 5.115-0.409 7.429-1.475-2.29-1.413-3.94-3.091-5.086-4.902-1.529-2.415-2.107-4.973-2.211-7.27-0.104-2.29 0.26-4.353 0.642-5.832 0.192-0.743 0.392-1.348 0.545-1.773 0.077-0.213 0.143-0.381 0.191-0.5 0.024-0.059 0.044-0.106 0.058-0.14l0.018-0.041 0.005-0.010c0.011-0.025 0.022-0.049 0.034-0.073l1.363 0.681 1.247-0.876c1.395 1.987 3.26 3.597 5.428 4.689 1.725 0.868 3.599 1.386 5.515 1.53-0.011-1.691 0.491-3.346 1.441-4.746 0.961-1.415 2.333-2.501 3.931-3.111zM5.188 7.686c-0.28 1.221-0.503 2.77-0.428 4.436 0.086 1.893 0.556 3.907 1.741 5.778 1.179 1.861 3.123 3.674 6.308 5.090 0.506 0.225 0.85 0.706 0.899 1.257s-0.204 1.086-0.662 1.396c-1.693 1.149-3.547 2.014-5.488 2.573 4.831 1.231 9.671 0.643 13.631-1.464 5.381-2.864 9.287-8.615 9.287-16.843-0.001-0.329-0.033-0.658-0.095-0.981-0.096-0.5 0.065-1.014 0.427-1.371 0.34-0.335 0.654-0.692 0.942-1.067-0.345 0.127-0.694 0.244-1.047 0.351-0.574 0.173-1.196-0.007-1.589-0.459-0.713-0.82-1.66-1.401-2.714-1.664s-2.163-0.197-3.178 0.19c-1.015 0.387-1.886 1.077-2.496 1.976s-0.93 1.963-0.915 3.049l0 0.020h-0v1.524c0 0.826-0.658 1.502-1.484 1.523-2.929 0.076-5.831-0.574-8.449-1.891-1.746-0.879-3.328-2.036-4.688-3.421z"></path>
</symbol>
<symbol id="icon-icon-close" viewBox="0 0 32 32">
<path stroke-linejoin="round" stroke-linecap="round" stroke-miterlimit="4" stroke-width="4.5714" d="M29.333 2.667l-26.665 26.665M2.667 2.667l26.665 26.665"></path>
</symbol>
<symbol id="icon-hero-Arrow" viewBox="0 0 32 32">
<path d="M16.945 17.866c-0.242 0.243-0.576 0.393-0.945 0.393s-0.704-0.15-0.945-0.393l-0-0-6.109-6.119c-0.244-0.264-0.592-0.428-0.979-0.428-0.737 0-1.334 0.597-1.334 1.334 0 0.384 0.162 0.729 0.421 0.973l0.001 0.001 6.119 6.121c0.724 0.723 1.723 1.169 2.826 1.169s2.103-0.447 2.826-1.169l6.121-6.121c0.239-0.241 0.387-0.573 0.387-0.94 0-0.737-0.597-1.334-1.334-1.334-0.37 0-0.705 0.151-0.947 0.394l-0 0-6.106 6.119z"></path>
</symbol>
<symbol id="icon-benefits-shovel" viewBox="0 0 32 32">
<path d="M15.374 13.835c-0.837-1.010-1.345-2.319-1.345-3.747 0-0.001 0-0.002 0-0.004v0c0-4.942 5.921-9.877 11.842-9.877 3.27 0.001 5.921 2.652 5.921 5.922v0c0 5.922-4.934 11.845-9.881 11.845-0.001 0-0.002 0-0.003 0-1.428 0-2.737-0.508-3.756-1.353l0.010 0.008-14.581 14.584c-0.352 0.328-0.826 0.53-1.347 0.53-1.092 0-1.977-0.885-1.977-1.977 0-0.521 0.201-0.995 0.531-1.348l-0.001 0.001 14.587-14.584z"></path>
</symbol>
<symbol id="icon-benefits-coin" viewBox="0 0 32 32">
<path d="M16 0.762c-8.381 0-15.238 6.857-15.238 15.238s6.857 15.238 15.238 15.238 15.238-6.857 15.238-15.238-6.857-15.238-15.238-15.238zM16 28.191c-6.705 0-12.191-5.486-12.191-12.191s5.486-12.191 12.191-12.191 12.191 5.486 12.191 12.191-5.486 12.191-12.191 12.191z"></path>
<path d="M17.981 14.477h-3.961c-0.762 0-1.371-0.61-1.371-1.371 0-0.762 0.609-1.371 1.371-1.371h5.638c0.914 0 1.525-0.61 1.525-1.525s-0.61-1.523-1.525-1.523h-2.133v-1.371c0-0.914-0.61-1.523-1.525-1.523s-1.523 0.609-1.523 1.523v1.371h-0.457c-2.44 0.002-4.417 1.979-4.419 4.419v0c0.003 2.439 1.98 4.416 4.419 4.418h3.809c0.762 0 1.371 0.61 1.371 1.371 0 0.762-0.609 1.371-1.371 1.371h-5.638c-0.914 0-1.525 0.61-1.525 1.525s0.61 1.523 1.525 1.523h2.286v1.371c0 0.914 0.609 1.523 1.523 1.523s1.525-0.609 1.525-1.523v-1.371h0.457c2.439-0.003 4.416-1.98 4.418-4.419v-0c-0.003-2.439-1.98-4.416-4.419-4.418h-0z"></path>
</symbol>
<symbol id="icon-benefits-chocolate" viewBox="0 0 32 32">
<path d="M13.511 0.472l8.602 8.613 0.091-0.091c0.176-0.173 0.418-0.279 0.684-0.279 0.259 0 0.494 0.101 0.669 0.265l-0.001-0.001 0.998 0.998c0.349 0.349 0.36 0.88 0.095 1.25l-0.005 0.008-0.163 0.219 7.040 7.040c0.629 0.629 0.629 1.634 0 2.263l-10.777 10.777c-0.629 0.629-1.634 0.629-2.263 0l-5.082-5.082c-0.178 0.223-0.449 0.365-0.754 0.365-0.266 0-0.508-0.108-0.682-0.284l-2.971-2.971c-0.173-0.176-0.279-0.418-0.279-0.684 0-0.259 0.101-0.494 0.265-0.669l-0.001 0.001 0.007-0.008 0.088-0.087-8.602-8.602c-0.629-0.629-0.629-1.634 0-2.263l10.777-10.777c0.629-0.629 1.634-0.629 2.263 0v0.001zM21.033 10.163l-2.007-2.006c-0.123-0.127-0.295-0.206-0.486-0.206s-0.363 0.079-0.486 0.205l-4.092 4.092c-0.126 0.126-0.205 0.299-0.205 0.491s0.078 0.366 0.205 0.491l1.999 1.999 0.697-0.697-1.789-1.789 3.669-3.68 1.793 1.799 0.701-0.701zM15.232 15.96l-2.005-2.005c-0.123-0.127-0.295-0.206-0.486-0.206s-0.363 0.079-0.486 0.205l-4.103 4.103c-0.274 0.263-0.274 0.697 0 0.971l2.002 2.002 0.704-0.704-1.794-1.787 3.68-3.669 1.787 1.786 0.699-0.698zM7.797 7.078l4.091 4.091c0.274 0.274 0.709 0.274 0.971-0.011l4.091-4.091c0.127-0.121 0.206-0.291 0.206-0.479 0-0 0-0 0-0.001v0h0.011c0-0.171-0.069-0.354-0.206-0.491l-4.091-4.091c-0.125-0.127-0.299-0.206-0.491-0.206s-0.366 0.079-0.491 0.205l-0 0-4.091 4.103c-0.274 0.263-0.274 0.697 0 0.971zM2.002 12.872l4.091 4.091c0.274 0.274 0.709 0.274 0.971 0l4.091-4.091c0.127-0.121 0.206-0.291 0.206-0.48 0-0.004-0-0.008-0-0.012v0.001h0.011c0-0.183-0.069-0.354-0.206-0.491l-4.091-4.091c-0.123-0.127-0.295-0.206-0.486-0.206s-0.363 0.079-0.486 0.205l-4.103 4.103c-0.274 0.263-0.274 0.697 0 0.971zM9.926 22.877l2.699 2.701 11.013-14.903-0.749-0.749-12.963 12.951z"></path>
<path d="M13.511 0.472l8.602 8.613 0.091-0.091c0.176-0.173 0.418-0.279 0.684-0.279 0.259 0 0.494 0.101 0.669 0.265l-0.001-0.001 0.998 0.998c0.349 0.349 0.36 0.88 0.095 1.25l-0.005 0.008-0.163 0.219 7.040 7.040c0.629 0.629 0.629 1.634 0 2.263l-10.777 10.777c-0.629 0.629-1.634 0.629-2.263 0l-5.082-5.082c-0.178 0.223-0.449 0.365-0.754 0.365-0.266 0-0.508-0.108-0.682-0.284l-2.971-2.971c-0.173-0.176-0.279-0.418-0.279-0.684 0-0.259 0.101-0.494 0.265-0.669l-0.001 0.001 0.007-0.008 0.088-0.087-8.602-8.602c-0.629-0.629-0.629-1.634 0-2.263l10.777-10.777c0.629-0.629 1.634-0.629 2.263 0v0.001zM21.033 10.163l-2.007-2.006c-0.123-0.127-0.295-0.206-0.486-0.206s-0.363 0.079-0.486 0.205l-4.092 4.092c-0.126 0.126-0.205 0.299-0.205 0.491s0.078 0.366 0.205 0.491l1.999 1.999 0.697-0.697-1.789-1.789 3.669-3.68 1.793 1.799 0.701-0.701zM15.232 15.96l-2.005-2.005c-0.123-0.127-0.295-0.206-0.486-0.206s-0.363 0.079-0.486 0.205l-4.103 4.103c-0.274 0.263-0.274 0.697 0 0.971l2.002 2.002 0.704-0.704-1.794-1.787 3.68-3.669 1.787 1.786 0.699-0.698zM7.797 7.078l4.091 4.091c0.274 0.274 0.709 0.274 0.971-0.011l4.091-4.091c0.127-0.121 0.206-0.291 0.206-0.479 0-0 0-0 0-0.001v0h0.011c0-0.171-0.069-0.354-0.206-0.491l-4.091-4.091c-0.125-0.127-0.299-0.206-0.491-0.206s-0.366 0.079-0.491 0.205l-0 0-4.091 4.103c-0.274 0.263-0.274 0.697 0 0.971zM2.002 12.872l4.091 4.091c0.274 0.274 0.709 0.274 0.971 0l4.091-4.091c0.127-0.121 0.206-0.291 0.206-0.48 0-0.004-0-0.008-0-0.012v0.001h0.011c0-0.183-0.069-0.354-0.206-0.491l-4.091-4.091c-0.123-0.127-0.295-0.206-0.486-0.206s-0.363 0.079-0.486 0.205l-4.103 4.103c-0.274 0.263-0.274 0.697 0 0.971zM9.926 22.877l2.699 2.701 11.013-14.903-0.749-0.749-12.963 12.951z"></path>
</symbol>
</defs>
</svg>
